,
  Hottest scene tracker on the net !!!   http://www.scenetime.com
 
         Please seed back after your download is completed

           Credit goes  to all seeders and  http://www.scenetime.com
 



...................................NFO:.................................................
                                                     
                                                   
                                                         
                                                          
                                                           
                                                          
                                                          
                                                          
                                                           
                                                         
                                                          
                                                        
                                                      
                                     
                                                 
                                                   
                                             
                                              
                                                     
                                                      
                                                      
                                                      
                                                    
                                                     
                                                   
                                                     
                                                     
                                                      
                                                     
                                                      
                                                    
                 ARTiCHOKE                        
                                                
                      
                                                        
                                                      
                                                      
                                               
                                          
                                                   
                                            
                                                    
                                                       
                                                        
                                                      
                                                
                                                        
                                                 
                                              
                                                  
                                                
                                                  
                                        

      
                                
      SPRiNTER proudly presents...     
                                
      
 
 Dis.2004.DVDRip.XviD-SPRiNTER  http://www.imdb.com/title/tt0441002/
 Audio: Icelandic
 Subtitles: English | Icelandic

 Date: 2010.12

 Director: Silja Hauksdttir
 Genre: Comedy

 Cast

	lfrn rnlfsdttir	 ...	Ds (as lfrn Helga rnlfsdttir)
	Ilmur Kristjnsdttir	 ...	Blr
	rni Tryggvason	 	 ...	Gaui
	Ylfa Edelstein  	 ...	Jamie Kooley
	runn Clausen		 ...	Magga (as runn Erna Clausen)
	Gunnar Hansson		 ...	Jn gst
	Unnur sp Stefnsdttir	 ...	Laufey
	var rn Sverrisson	 ...	Lalli
	Elma Lsa Gunnarsdttir	 ...	Starfskona  tskuvruverslun
	Gsli Ptur Hinriksson	 ...	Mr
	Ari Matthasson		 ...	Yfirjnn
	Gurn Gsladttir	 ...	Arna
	Sigurur Sklason	 ...	Oddur
	orsteinn Gunnarsson	 ...	Pabbi Mggu
	Edda Gunnarsdttir	 ...	Mamma Mggu

      
                 
      Release notes     
                 
      

 Enjoy!


      
           
     Greetings    
           
      


NTX aAF FiCO HNR CiNEFiLE AEN HUMANiSM MOViERUSH


      
           
      Details     
           
      

Format                           : AVI
Format/Info                      : Audio Video Interleave
File size                        : 701 MiB
Duration                         : 1h 22mn
Overall bit rate                 : 1 189 Kbps
Writing application              : VirtualDubMod 1.5.10.2 (build 2540/release)
Writing library                  : VirtualDubMod build 2540/release

Video
ID                               : 0
Format                           : MPEG-4 Visual
Format profile                   : Advanced Simple@L5
Format settings, BVOP            : Yes
Format settings, QPel            : No
Format settings, GMC             : No warppoints
Format settings, Matrix          : Default (H.263)
Codec ID                         : XVID
Codec ID/Hint                    : XviD
Duration                         : 1h 22mn
Bit rate                         : 1 019 Kbps
Width                            : 624 pixels
Height                           : 256 pixels
Display aspect ratio             : 2.40:1
Frame rate                       : 25.000 fps
Color space                      : YUV
Chroma subsampling               : 4:2:0
Bit depth                        : 8 bits
Scan type                        : Progressive
Bits/(Pixel*Frame)               : 0.255
Stream size                      : 600 MiB (86%)
Writing library                  : XviD 1.2.0.dev47 (UTC 2006-11-01)

Audio
ID                               : 1
Format                           : MPEG Audio
Format version                   : Version 1
Format profile                   : Layer 3
Mode                             : Joint stereo
Mode extension                   : MS Stereo
Codec ID                         : 55
Codec ID/Hint                    : MP3
Duration                         : 1h 21mn
Bit rate mode                    : Variable
Bit rate                         : 160 Kbps
Minimum bit rate                 : 160 Kbps
Channel(s)                       : 2 channels
Sampling rate                    : 48.0 KHz
Stream size                      : 93.1 MiB (13%)
Alignment                        : Aligned on interleaves
Interleave, duration             : 24 ms (0.61 video frame)
Interleave, preload duration     : 163 ms
Writing library                  : LAME3.95 
Encoding settings                : -m j -V 4 -q 3 -lowpass 18 --vbr-old -b 160